<svg xmlns="http://www.w3.org/2000/svg" width="40" height="40" viewBox="0 0 40 40"><path d="M20,8A20,20,0,1,0,40,28,20,20,0,0,0,20,8Zm-2.581,4.1v.911a1.292,1.292,0,0,1-1.871,1.153l-1.935-.968a16.281,16.281,0,0,1,3.806-1.1ZM20,41.919v2.21A16.107,16.107,0,0,1,5.29,21.411c.8,1.185,2.032,3.016,2.79,4.121A9,9,0,0,0,9.54,27.2l.065.056a11.76,11.76,0,0,0,2.548,1.758c1.129.565,2.774,1.468,3.935,2.1a2.569,2.569,0,0,1,1.331,2.258V35.96a2.576,2.576,0,0,0,.758,1.823A6.054,6.054,0,0,1,20,41.919Zm3.444,1.831,1.4-3.782c.161-.444.266-.9.387-1.363a1.949,1.949,0,0,1,.5-.863l.911-.911a3.739,3.739,0,0,0,1.1-2.661,2.466,2.466,0,0,0-.718-1.742l-1.1-1.1a2.576,2.576,0,0,0-1.823-.758h-5.4c-.758-.379-1.734-2.581-2.581-2.581a5.475,5.475,0,0,1-2.444-.581l-.9-.444a.972.972,0,0,1-.532-.863.961.961,0,0,1,.661-.911l2.516-.839a1.278,1.278,0,0,1,1.25.25l.75.653a.635.635,0,0,0,.419.161h.452a.649.649,0,0,0,.581-.935L17.629,21.96a.638.638,0,0,1,.129-.75l.8-.774a.634.634,0,0,1,.452-.185h.726a.653.653,0,0,0,.46-.185l.645-.645a.647.647,0,0,0,0-.911l-.379-.379a.647.647,0,0,1,0-.911l.831-.831.379-.379a1.3,1.3,0,0,0,0-1.823L19.387,11.9c.2-.008.4-.032.613-.032A16.135,16.135,0,0,1,34.411,20.8l-1.048.524a2,2,0,0,0-.742.653L31.04,24.347a1.924,1.924,0,0,0,0,2.145l1.452,2.177a1.957,1.957,0,0,0,1.137.806l2.355.589A16.159,16.159,0,0,1,23.444,43.75Z" transform="translate(0 -8)"/></svg>