<svg xmlns="http://www.w3.org/2000/svg" width="235.312" height="30" viewBox="0 0 235.312 30"><defs><style>.a{fill:#f03000;}</style></defs><path class="a" d="M15.812,6.614a7.928,7.928,0,0,0-7.946,8.239,7.989,7.989,0,0,0,7.991,8.328,10.867,10.867,0,0,0,7.227-3.427l4.439,4.8A17.535,17.535,0,0,1,15.342,30C6.57,30,0,23.554,0,14.933,0,6.481,6.739.124,15.688.124A16.869,16.869,0,0,1,27.523,5.149l-4.439,5.327a9.953,9.953,0,0,0-7.271-3.862ZM53.989.337V6.446H38.505v5.478H52.48v6.108H38.505v5.522h15.9v6.108H30.852V.337ZM69.864,6.215c-1.838,0-3.054.675-3.054,2.007,0,4.856,15.439,2.1,15.439,12.643,0,5.984-5.274,9.038-11.8,9.038a22.054,22.054,0,0,1-13.513-4.688L59.9,19.231c3.019,2.592,7.573,4.439,10.654,4.439,2.264,0,3.685-.843,3.685-2.388C74.241,16.3,58.8,19.31,58.8,8.941,58.775,3.471,63.418,0,70.494,0A22.524,22.524,0,0,1,82.2,3.3L79.319,9.376C76.221,7.618,72.288,6.215,69.864,6.215ZM108.751.337V6.65h-8.79V29.663H92.335V6.65H83.6V.337Zm31.474,14.64c0,8.577-6.774,15.022-15.857,15.022s-15.857-6.446-15.857-15.022S115.286.124,124.368.124s15.857,6.357,15.857,14.854Zm-23.847.044a8.275,8.275,0,0,0,8.07,8.452c4.439,0,7.911-3.685,7.911-8.452a8.068,8.068,0,0,0-7.911-8.372,8.177,8.177,0,0,0-8.07,8.372ZM148.952.337l7.307,21.21L163.637.337H171.5l-11.462,29.3h-7.991L140.7.337Zm44.365,29.325L185.7,18.325l-3.764,4.191v7.1h-7.653V.337h7.653v12.3l11-12.3h8.878L190.929,12.43l11.542,17.2Zm31.856-5.185H212.495l-2.078,5.185h-7.866l12.6-29.3h7.866l12.3,29.3h-8.159Zm-2.255-5.833L218.9,8.159l-4.1,10.485Z"/></svg>