<svg xmlns="http://www.w3.org/2000/svg" width="30" height="40" viewBox="0 0 30 40"><path d="M15,0A15.044,15.044,0,0,0,0,15c0,6,2,7.75,13.5,24.25a1.875,1.875,0,0,0,3,0C28,22.75,30,21,30,15A15.044,15.044,0,0,0,15,0Zm0,34.851c-1.126-1.606-2.149-3.056-3.079-4.374C4.559,20.038,3.75,18.766,3.75,15a11.25,11.25,0,0,1,22.5,0c0,3.766-.809,5.038-8.171,15.476C17.149,31.794,16.126,33.245,15,34.851Zm7.807-22.837-1.813-1.828a.772.772,0,0,0-1.092,0l-6.825,6.77-2.959-2.984a.772.772,0,0,0-1.092,0L7.2,15.776a.772.772,0,0,0,0,1.092l5.316,5.359a.772.772,0,0,0,1.092,0L22.8,13.1a.771.771,0,0,0,0-1.091Z"/></svg>