<svg xmlns="http://www.w3.org/2000/svg" width="53.334" height="40" viewBox="0 0 53.334 40"><path d="M52,66.659H1.331A1.333,1.333,0,0,0,0,67.993v2.667a1.333,1.333,0,0,0,1.333,1.333H52a1.333,1.333,0,0,0,1.333-1.333V67.993A1.333,1.333,0,0,0,52,66.659ZM6.71,57.765a2.748,2.748,0,0,0,2.027.892l10.878-.015a5.468,5.468,0,0,0,2.47-.593l24.246-12.3a14.166,14.166,0,0,0,5.585-4.859c1.526-2.373,1.692-4.091,1.089-5.3s-2.062-2.106-4.854-2.287a14,14,0,0,0-7.19,1.623l-8.209,4.166L14.528,32.246a1.483,1.483,0,0,0-1.5-.092L7.549,34.934a1.523,1.523,0,0,0-.431,2.377l13.018,8.175-8.6,4.365L5.506,46.812a1.484,1.484,0,0,0-1.339,0l-3.344,1.7a1.523,1.523,0,0,0-.464,2.34Z" transform="translate(0.003 -31.993)"/></svg>