<svg xmlns="http://www.w3.org/2000/svg" width="37.5" height="40" viewBox="0 0 37.5 40"><path d="M33.5,8.75V9.7a2.5,2.5,0,0,1-4.268,1.768l-.67-.67a1.25,1.25,0,1,0-1.768,1.768l.67.67A2.5,2.5,0,0,1,25.7,17.5H24.75a1.25,1.25,0,0,0,0,2.5H25.7a2.5,2.5,0,0,1,1.768,4.268l-.67.67a1.25,1.25,0,0,0,1.768,1.768l.67-.67A2.5,2.5,0,0,1,33.5,27.8v.947a1.25,1.25,0,1,0,2.5,0V27.8a2.5,2.5,0,0,1,4.268-1.768l.67.67a1.25,1.25,0,0,0,1.768-1.768l-.67-.67A2.5,2.5,0,0,1,43.8,20h.947a1.25,1.25,0,0,0,0-2.5H43.8a2.5,2.5,0,0,1-1.768-4.268l.67-.67a1.25,1.25,0,1,0-1.768-1.768l-.67.67A2.5,2.5,0,0,1,36,9.7V8.75a1.25,1.25,0,1,0-2.5,0ZM32.25,17.5a1.25,1.25,0,1,1,1.25-1.25A1.25,1.25,0,0,1,32.25,17.5Zm5,2.5A1.25,1.25,0,1,1,36,21.25,1.25,1.25,0,0,1,37.25,20ZM51.2,6.538,36.2.288a3.764,3.764,0,0,0-2.884,0l-15,6.25A3.745,3.745,0,0,0,16,10c0,15.508,8.945,26.228,17.3,29.713a3.759,3.759,0,0,0,2.884,0C42.882,36.923,53.5,27.289,53.5,10a3.75,3.75,0,0,0-2.3-3.463ZM34.756,3.75Zm-.006,32.5c-7.226-3.009-15-12.509-15-26.25L34.662,3.783c.026-.008.071-.017.112-.025L49.75,10C49.75,25.819,39.935,34.088,34.75,36.25Z" transform="translate(-16)"/></svg>